<?xml version="1.0" encoding="utf-8"?>
<!-- Generator: Adobe Illustrator 25.2.0, SVG Export Plug-In . SVG Version: 6.00 Build 0)  -->
<svg version="1.1" id="Layer_1" xmlns="http://www.w3.org/2000/svg" xmlns:xlink="http://www.w3.org/1999/xlink" x="0px" y="0px"
	 viewBox="0 0 24 24" style="enable-background:new 0 0 24 24;" xml:space="preserve">
<style type="text/css">
	.st0{fill:#E7E7EB;}
</style>
<path class="st0" d="M17,9c0-1.4-0.6-2.6-1.5-3.5C14.6,4.6,13.4,4,12,4S9.4,4.6,8.5,5.5C7.6,6.4,7,7.6,7,9s0.6,2.6,1.5,3.5
	C9.4,13.4,10.6,14,12,14s2.6-0.6,3.5-1.5C16.4,11.6,17,10.4,17,9z"/>
<path class="st0" d="M6,19c0,1,2.2,2,6,2c3.5,0,6-1,6-2c0-2-2.4-4-6-4C8.2,15,6,17,6,19z"/>
</svg>
